<?xml version="1.0" standalone="no"?>
<!DOCTYPE svg PUBLIC "-//W3C//DTD SVG 20010904//EN"
 "http://www.w3.org/TR/2001/REC-SVG-20010904/DTD/svg10.dtd">
<svg version="1.0" xmlns="http://www.w3.org/2000/svg"
 width="408.000000pt" height="408.000000pt" viewBox="0 0 408.000000 408.000000"
 preserveAspectRatio="xMidYMid meet">
<metadata>
Created by potrace 1.14, written by Peter Selinger 2001-2017
</metadata>
<g transform="translate(0.000000,408.000000) scale(0.100000,-0.100000)"
fill="#000000" stroke="none">
<path d="M0 2040 l0 -2040 2040 0 2040 0 0 2040 0 2040 -2040 0 -2040 0 0
-2040z m2729 1224 c453 -81 823 -404 964 -839 14 -44 33 -118 42 -164 20 -109
20 -324 -1 -432 -86 -454 -397 -813 -830 -958 -167 -56 -206 -59 -814 -59
-608 0 -647 3 -814 59 -433 145 -753 516 -831 966 -20 112 -19 318 1 424 74
391 316 716 663 889 101 51 235 96 337 113 121 21 1166 22 1283 1z"/>
<path d="M1455 3158 c-394 -74 -737 -373 -863 -753 -76 -227 -76 -493 0 -720
81 -247 270 -478 503 -617 115 -69 290 -129 412 -143 l58 -6 -60 33 c-257 143
-456 364 -564 626 -17 40 -43 121 -58 180 -25 98 -28 122 -27 287 0 154 3 194
23 275 60 243 160 421 335 596 101 101 180 161 291 221 53 29 57 32 30 32 -16
-1 -52 -5 -80 -11z"/>
<path d="M2690 3129 c218 -119 416 -329 521 -553 88 -189 114 -313 113 -541 0
-182 -17 -280 -70 -423 -103 -272 -313 -512 -579 -660 l-60 -33 60 6 c120 14
299 77 420 149 232 138 415 369 499 629 29 88 56 256 56 343 0 79 -25 241 -51
326 -117 393 -451 697 -860 783 -123 26 -134 20 -49 -26z"/>
<path d="M1780 3134 c-190 -55 -366 -161 -502 -302 -142 -147 -231 -302 -285
-498 -26 -92 -28 -112 -28 -289 0 -176 2 -197 28 -290 71 -255 244 -500 456
-644 141 -96 389 -190 455 -173 l31 8 -30 19 c-171 104 -325 244 -415 379
-290 434 -291 964 -2 1400 69 105 229 261 345 336 77 51 94 66 80 71 -28 12
-42 10 -133 -17z"/>
<path d="M2267 3152 c-14 -6 2 -21 80 -72 120 -78 278 -233 352 -345 282 -430
279 -957 -7 -1389 -69 -105 -229 -261 -345 -337 -96 -62 -98 -64 -69 -71 65
-17 314 79 453 173 82 55 208 176 270 258 95 127 173 305 205 470 20 102 20
304 0 412 -65 348 -294 650 -613 809 -125 61 -288 108 -326 92z"/>
<path d="M2001 3054 c-291 -145 -500 -406 -589 -732 -23 -88 -26 -114 -26
-277 0 -163 3 -189 26 -277 56 -206 152 -373 297 -519 117 -117 319 -249 382
-249 32 0 175 78 261 143 203 152 349 373 418 632 31 114 38 328 16 458 -16
97 -61 237 -98 312 -107 212 -291 397 -505 508 l-91 47 -91 -46z"/>
</g>
</svg>
